# xmcd
#
# Track frame offsets:
#	150
#	16733
#	34392
#	50114
#	69798
#	82380
#	100868
#	117269
#	136300
#	152575
#	168431
#	182755
#	193423
#	205264
#	219825
#	234881
#	252193
#	267995
#
# Disc length: 3792 seconds
#
# Revision: 0
# Processed by: cddbd v1.4PL0 Copyright (c) Steve Scherf et al.
# Submitted via: audiograbber 1.80.04
#
DISCID=fc0ece12
DTITLE=Various Artist - R&b Christmas
DYEAR=1998
DGENRE=R&B
TTITLE0=Last Christmas
TTITLE1=White Christmas
TTITLE2=First Noel
TTITLE3=Thank God It's Christmas
TTITLE4=Driving Home For Christmas
TTITLE5=Do You Hear What I Hear
TTITLE6=When A Child Is Born
TTITLE7=The Power Of Love
TTITLE8=Lonely This Christmas
TTITLE9=I Still Believe In Santa Claus
TTITLE10=Mary's Boychild
TTITLE11=Silent Night
TTITLE12=Please Come Home For Christmas
TTITLE13=Jingle Bells
TTITLE14=The Christmes Song (Chestnuts)
TTITLE15=My Gift To You
TTITLE16=Have Yorself A Merry Little Christmas
TTITLE17=Happy Christmas (War Is Over)
EXTD=
EXTT0=Soul Made Featuring Lynn and Burney\n
EXTT1=Pulse In Corporate\n
EXTT2=Soul Made\n
EXTT3=Peter Sanders\n
EXTT4=Earl Ray Michaels\n
EXTT5=Anna Gram and Mack Full\n
EXTT6=Twinkle B.\n
EXTT7=Duke of music\n
EXTT8=Joshua\n
EXTT9=Jay 'S' Michael\n
EXTT10=Cindy R. Alla\n
EXTT11=Deli Kate\n
EXTT12=Mary White\n
EXTT13=Richard Flint\n
EXTT14=Natha Lee\n
EXTT15=Leroy King\n
EXTT16=Eva Stanley\n
EXTT17=Julian McNeal\n
PLAYORDER=
